<svg aria-roledescription="er" role="graphics-document document" viewBox="0 0 187.19398498535156 680" style="max-width: 187.194px; background-color: white;" xmlns:xlink="http://www.w3.org/1999/xlink" xmlns="http://www.w3.org/2000/svg" width="100%" id="my-svg"><style>#my-svg{font-family:"trebuchet ms",verdana,arial,sans-serif;font-size:16px;fill:#000000;}#my-svg .error-icon{fill:#552222;}#my-svg .error-text{fill:#552222;stroke:#552222;}#my-svg .edge-thickness-normal{stroke-width:2px;}#my-svg .edge-thickness-thick{stroke-width:3.5px;}#my-svg .edge-pattern-solid{stroke-dasharray:0;}#my-svg .edge-pattern-dashed{stroke-dasharray:3;}#my-svg .edge-pattern-dotted{stroke-dasharray:2;}#my-svg .marker{fill:#000000;stroke:#000000;}#my-svg .marker.cross{stroke:#000000;}#my-svg svg{font-family:"trebuchet ms",verdana,arial,sans-serif;font-size:16px;}#my-svg .entityBox{fill:#cde498;stroke:#13540c;}#my-svg .attributeBoxOdd{fill:#ffffff;stroke:#13540c;}#my-svg .attributeBoxEven{fill:#f2f2f2;stroke:#13540c;}#my-svg .relationshipLabelBox{fill:hsl(78.1578947368, 58.4615384615%, 84.5098039216%);opacity:0.7;background-color:hsl(78.1578947368, 58.4615384615%, 84.5098039216%);}#my-svg .relationshipLabelBox rect{opacity:0.5;}#my-svg .relationshipLine{stroke:#000000;}#my-svg .entityTitleText{text-anchor:middle;font-size:18px;fill:#000000;}#my-svg #MD_PARENT_START{fill:#f5f5f5!important;stroke:#000000!important;stroke-width:1;}#my-svg #MD_PARENT_END{fill:#f5f5f5!important;stroke:#000000!important;stroke-width:1;}#my-svg :root{--mermaid-font-family:"trebuchet ms",verdana,arial,sans-serif;}</style><g/><defs><marker orient="auto" markerHeight="240" markerWidth="190" refY="7" refX="0" id="MD_PARENT_START"><path d="M 18,7 L9,13 L1,7 L9,1 Z"/></marker></defs><defs><marker orient="auto" markerHeight="28" markerWidth="20" refY="7" refX="19" id="MD_PARENT_END"><path d="M 18,7 L9,13 L1,7 L9,1 Z"/></marker></defs><defs><marker orient="auto" markerHeight="18" markerWidth="18" refY="9" refX="0" id="ONLY_ONE_START"><path d="M9,0 L9,18 M15,0 L15,18" fill="none" stroke="gray"/></marker></defs><defs><marker orient="auto" markerHeight="18" markerWidth="18" refY="9" refX="18" id="ONLY_ONE_END"><path d="M3,0 L3,18 M9,0 L9,18" fill="none" stroke="gray"/></marker></defs><defs><marker orient="auto" markerHeight="18" markerWidth="30" refY="9" refX="0" id="ZERO_OR_ONE_START"><circle r="6" cy="9" cx="21" fill="white" stroke="gray"/><path d="M9,0 L9,18" fill="none" stroke="gray"/></marker></defs><defs><marker orient="auto" markerHeight="18" markerWidth="30" refY="9" refX="30" id="ZERO_OR_ONE_END"><circle r="6" cy="9" cx="9" fill="white" stroke="gray"/><path d="M21,0 L21,18" fill="none" stroke="gray"/></marker></defs><defs><marker orient="auto" markerHeight="36" markerWidth="45" refY="18" refX="18" id="ONE_OR_MORE_START"><path d="M0,18 Q 18,0 36,18 Q 18,36 0,18 M42,9 L42,27" fill="none" stroke="gray"/></marker></defs><defs><marker orient="auto" markerHeight="36" markerWidth="45" refY="18" refX="27" id="ONE_OR_MORE_END"><path d="M3,9 L3,27 M9,18 Q27,0 45,18 Q27,36 9,18" fill="none" stroke="gray"/></marker></defs><defs><marker orient="auto" markerHeight="36" markerWidth="57" refY="18" refX="18" id="ZERO_OR_MORE_START"><circle r="6" cy="18" cx="48" fill="white" stroke="gray"/><path d="M0,18 Q18,0 36,18 Q18,36 0,18" fill="none" stroke="gray"/></marker></defs><defs><marker orient="auto" markerHeight="36" markerWidth="57" refY="18" refX="39" id="ZERO_OR_MORE_END"><circle r="6" cy="18" cx="9" fill="white" stroke="gray"/><path d="M21,18 Q39,0 57,18 Q39,36 21,18" fill="none" stroke="gray"/></marker></defs><g transform="translate(20,20 )" id="entity-Transaction-7f4cb715-d743-519d-9786-b0e2ee68e3b7"><rect height="640" width="147.19398498535156" y="0" x="0" class="er entityBox"/><text style="dominant-baseline: middle; text-anchor: middle; font-size: 12px;" transform="translate(73.59699249267578,12)" y="0" x="0" id="text-entity-Transaction-7f4cb715-d743-519d-9786-b0e2ee68e3b7" class="er entityLabel">Transaction</text><rect height="22" width="54.095550537109375" y="24" x="0" class="er attributeBoxOdd"/><text style="dominant-baseline: middle; font-size: 10.2px;" transform="translate(5,35)" y="0" x="0" id="text-entity-Transaction-7f4cb715-d743-519d-9786-b0e2ee68e3b7-attr-1-type" class="er entityLabel">String</text><rect height="22" width="69.08280944824219" y="24" x="54.095550537109375" class="er attributeBoxOdd"/><text style="dominant-baseline: middle; font-size: 10.2px;" transform="translate(59.095550537109375,35)" y="0" x="0" id="text-entity-Transaction-7f4cb715-d743-519d-9786-b0e2ee68e3b7-attr-1-name" class="er entityLabel">id</text><rect height="22" width="24.015625" y="24" x="123.17835998535156" class="er attributeBoxOdd"/><text style="dominant-baseline: middle; font-size: 10.2px;" transform="translate(128.17835998535156,35)" y="0" x="0" id="text-entity-Transaction-7f4cb715-d743-519d-9786-b0e2ee68e3b7-attr-1-comment" class="er entityLabel">🗝️</text><rect height="22" width="54.095550537109375" y="46" x="0" class="er attributeBoxEven"/><text style="dominant-baseline: middle; font-size: 10.2px;" transform="translate(5,57)" y="0" x="0" id="text-entity-Transaction-7f4cb715-d743-519d-9786-b0e2ee68e3b7-attr-2-type" class="er entityLabel">String</text><rect height="22" width="69.08280944824219" y="46" x="54.095550537109375" class="er attributeBoxEven"/><text style="dominant-baseline: middle; font-size: 10.2px;" transform="translate(59.095550537109375,57)" y="0" x="0" id="text-entity-Transaction-7f4cb715-d743-519d-9786-b0e2ee68e3b7-attr-2-name" class="er entityLabel">nrInst</text><rect height="22" width="24.015625" y="46" x="123.17835998535156" class="er attributeBoxEven"/><text style="dominant-baseline: middle; font-size: 10.2px;" transform="translate(128.17835998535156,57)" y="0" x="0" id="text-entity-Transaction-7f4cb715-d743-519d-9786-b0e2ee68e3b7-attr-2-comment" class="er entityLabel"/><rect height="22" width="54.095550537109375" y="68" x="0" class="er attributeBoxOdd"/><text style="dominant-baseline: middle; font-size: 10.2px;" transform="translate(5,79)" y="0" x="0" id="text-entity-Transaction-7f4cb715-d743-519d-9786-b0e2ee68e3b7-attr-3-type" class="er entityLabel">String</text><rect height="22" width="69.08280944824219" y="68" x="54.095550537109375" class="er attributeBoxOdd"/><text style="dominant-baseline: middle; font-size: 10.2px;" transform="translate(59.095550537109375,79)" y="0" x="0" id="text-entity-Transaction-7f4cb715-d743-519d-9786-b0e2ee68e3b7-attr-3-name" class="er entityLabel">nrAgencia</text><rect height="22" width="24.015625" y="68" x="123.17835998535156" class="er attributeBoxOdd"/><text style="dominant-baseline: middle; font-size: 10.2px;" transform="translate(128.17835998535156,79)" y="0" x="0" id="text-entity-Transaction-7f4cb715-d743-519d-9786-b0e2ee68e3b7-attr-3-comment" class="er entityLabel"/><rect height="22" width="54.095550537109375" y="90" x="0" class="er attributeBoxEven"/><text style="dominant-baseline: middle; font-size: 10.2px;" transform="translate(5,101)" y="0" x="0" id="text-entity-Transaction-7f4cb715-d743-519d-9786-b0e2ee68e3b7-attr-4-type" class="er entityLabel">String</text><rect height="22" width="69.08280944824219" y="90" x="54.095550537109375" class="er attributeBoxEven"/><text style="dominant-baseline: middle; font-size: 10.2px;" transform="translate(59.095550537109375,101)" y="0" x="0" id="text-entity-Transaction-7f4cb715-d743-519d-9786-b0e2ee68e3b7-attr-4-name" class="er entityLabel">cdClient</text><rect height="22" width="24.015625" y="90" x="123.17835998535156" class="er attributeBoxEven"/><text style="dominant-baseline: middle; font-size: 10.2px;" transform="translate(128.17835998535156,101)" y="0" x="0" id="text-entity-Transaction-7f4cb715-d743-519d-9786-b0e2ee68e3b7-attr-4-comment" class="er entityLabel"/><rect height="22" width="54.095550537109375" y="112" x="0" class="er attributeBoxOdd"/><text style="dominant-baseline: middle; font-size: 10.2px;" transform="translate(5,123)" y="0" x="0" id="text-entity-Transaction-7f4cb715-d743-519d-9786-b0e2ee68e3b7-attr-5-type" class="er entityLabel">String</text><rect height="22" width="69.08280944824219" y="112" x="54.095550537109375" class="er attributeBoxOdd"/><text style="dominant-baseline: middle; font-size: 10.2px;" transform="translate(59.095550537109375,123)" y="0" x="0" id="text-entity-Transaction-7f4cb715-d743-519d-9786-b0e2ee68e3b7-attr-5-name" class="er entityLabel">nmClient</text><rect height="22" width="24.015625" y="112" x="123.17835998535156" class="er attributeBoxOdd"/><text style="dominant-baseline: middle; font-size: 10.2px;" transform="translate(128.17835998535156,123)" y="0" x="0" id="text-entity-Transaction-7f4cb715-d743-519d-9786-b0e2ee68e3b7-attr-5-comment" class="er entityLabel"/><rect height="22" width="54.095550537109375" y="134" x="0" class="er attributeBoxEven"/><text style="dominant-baseline: middle; font-size: 10.2px;" transform="translate(5,145)" y="0" x="0" id="text-entity-Transaction-7f4cb715-d743-519d-9786-b0e2ee68e3b7-attr-6-type" class="er entityLabel">String</text><rect height="22" width="69.08280944824219" y="134" x="54.095550537109375" class="er attributeBoxEven"/><text style="dominant-baseline: middle; font-size: 10.2px;" transform="translate(59.095550537109375,145)" y="0" x="0" id="text-entity-Transaction-7f4cb715-d743-519d-9786-b0e2ee68e3b7-attr-6-name" class="er entityLabel">nrCpfCnpj</text><rect height="22" width="24.015625" y="134" x="123.17835998535156" class="er attributeBoxEven"/><text style="dominant-baseline: middle; font-size: 10.2px;" transform="translate(128.17835998535156,145)" y="0" x="0" id="text-entity-Transaction-7f4cb715-d743-519d-9786-b0e2ee68e3b7-attr-6-comment" class="er entityLabel"/><rect height="22" width="54.095550537109375" y="156" x="0" class="er attributeBoxOdd"/><text style="dominant-baseline: middle; font-size: 10.2px;" transform="translate(5,167)" y="0" x="0" id="text-entity-Transaction-7f4cb715-d743-519d-9786-b0e2ee68e3b7-attr-7-type" class="er entityLabel">String</text><rect height="22" width="69.08280944824219" y="156" x="54.095550537109375" class="er attributeBoxOdd"/><text style="dominant-baseline: middle; font-size: 10.2px;" transform="translate(59.095550537109375,167)" y="0" x="0" id="text-entity-Transaction-7f4cb715-d743-519d-9786-b0e2ee68e3b7-attr-7-name" class="er entityLabel">nrContrato</text><rect height="22" width="24.015625" y="156" x="123.17835998535156" class="er attributeBoxOdd"/><text style="dominant-baseline: middle; font-size: 10.2px;" transform="translate(128.17835998535156,167)" y="0" x="0" id="text-entity-Transaction-7f4cb715-d743-519d-9786-b0e2ee68e3b7-attr-7-comment" class="er entityLabel"/><rect height="22" width="54.095550537109375" y="178" x="0" class="er attributeBoxEven"/><text style="dominant-baseline: middle; font-size: 10.2px;" transform="translate(5,189)" y="0" x="0" id="text-entity-Transaction-7f4cb715-d743-519d-9786-b0e2ee68e3b7-attr-8-type" class="er entityLabel">DateTime</text><rect height="22" width="69.08280944824219" y="178" x="54.095550537109375" class="er attributeBoxEven"/><text style="dominant-baseline: middle; font-size: 10.2px;" transform="translate(59.095550537109375,189)" y="0" x="0" id="text-entity-Transaction-7f4cb715-d743-519d-9786-b0e2ee68e3b7-attr-8-name" class="er entityLabel">dtContrato</text><rect height="22" width="24.015625" y="178" x="123.17835998535156" class="er attributeBoxEven"/><text style="dominant-baseline: middle; font-size: 10.2px;" transform="translate(128.17835998535156,189)" y="0" x="0" id="text-entity-Transaction-7f4cb715-d743-519d-9786-b0e2ee68e3b7-attr-8-comment" class="er entityLabel"/><rect height="22" width="54.095550537109375" y="200" x="0" class="er attributeBoxOdd"/><text style="dominant-baseline: middle; font-size: 10.2px;" transform="translate(5,211)" y="0" x="0" id="text-entity-Transaction-7f4cb715-d743-519d-9786-b0e2ee68e3b7-attr-9-type" class="er entityLabel">String</text><rect height="22" width="69.08280944824219" y="200" x="54.095550537109375" class="er attributeBoxOdd"/><text style="dominant-baseline: middle; font-size: 10.2px;" transform="translate(59.095550537109375,211)" y="0" x="0" id="text-entity-Transaction-7f4cb715-d743-519d-9786-b0e2ee68e3b7-attr-9-name" class="er entityLabel">qtPrestacoes</text><rect height="22" width="24.015625" y="200" x="123.17835998535156" class="er attributeBoxOdd"/><text style="dominant-baseline: middle; font-size: 10.2px;" transform="translate(128.17835998535156,211)" y="0" x="0" id="text-entity-Transaction-7f4cb715-d743-519d-9786-b0e2ee68e3b7-attr-9-comment" class="er entityLabel"/><rect height="22" width="54.095550537109375" y="222" x="0" class="er attributeBoxEven"/><text style="dominant-baseline: middle; font-size: 10.2px;" transform="translate(5,233)" y="0" x="0" id="text-entity-Transaction-7f4cb715-d743-519d-9786-b0e2ee68e3b7-attr-10-type" class="er entityLabel">String</text><rect height="22" width="69.08280944824219" y="222" x="54.095550537109375" class="er attributeBoxEven"/><text style="dominant-baseline: middle; font-size: 10.2px;" transform="translate(59.095550537109375,233)" y="0" x="0" id="text-entity-Transaction-7f4cb715-d743-519d-9786-b0e2ee68e3b7-attr-10-name" class="er entityLabel">vlTotal</text><rect height="22" width="24.015625" y="222" x="123.17835998535156" class="er attributeBoxEven"/><text style="dominant-baseline: middle; font-size: 10.2px;" transform="translate(128.17835998535156,233)" y="0" x="0" id="text-entity-Transaction-7f4cb715-d743-519d-9786-b0e2ee68e3b7-attr-10-comment" class="er entityLabel"/><rect height="22" width="54.095550537109375" y="244" x="0" class="er attributeBoxOdd"/><text style="dominant-baseline: middle; font-size: 10.2px;" transform="translate(5,255)" y="0" x="0" id="text-entity-Transaction-7f4cb715-d743-519d-9786-b0e2ee68e3b7-attr-11-type" class="er entityLabel">String</text><rect height="22" width="69.08280944824219" y="244" x="54.095550537109375" class="er attributeBoxOdd"/><text style="dominant-baseline: middle; font-size: 10.2px;" transform="translate(59.095550537109375,255)" y="0" x="0" id="text-entity-Transaction-7f4cb715-d743-519d-9786-b0e2ee68e3b7-attr-11-name" class="er entityLabel">cdProduto</text><rect height="22" width="24.015625" y="244" x="123.17835998535156" class="er attributeBoxOdd"/><text style="dominant-baseline: middle; font-size: 10.2px;" transform="translate(128.17835998535156,255)" y="0" x="0" id="text-entity-Transaction-7f4cb715-d743-519d-9786-b0e2ee68e3b7-attr-11-comment" class="er entityLabel"/><rect height="22" width="54.095550537109375" y="266" x="0" class="er attributeBoxEven"/><text style="dominant-baseline: middle; font-size: 10.2px;" transform="translate(5,277)" y="0" x="0" id="text-entity-Transaction-7f4cb715-d743-519d-9786-b0e2ee68e3b7-attr-12-type" class="er entityLabel">String</text><rect height="22" width="69.08280944824219" y="266" x="54.095550537109375" class="er attributeBoxEven"/><text style="dominant-baseline: middle; font-size: 10.2px;" transform="translate(59.095550537109375,277)" y="0" x="0" id="text-entity-Transaction-7f4cb715-d743-519d-9786-b0e2ee68e3b7-attr-12-name" class="er entityLabel">dsProduto</text><rect height="22" width="24.015625" y="266" x="123.17835998535156" class="er attributeBoxEven"/><text style="dominant-baseline: middle; font-size: 10.2px;" transform="translate(128.17835998535156,277)" y="0" x="0" id="text-entity-Transaction-7f4cb715-d743-519d-9786-b0e2ee68e3b7-attr-12-comment" class="er entityLabel"/><rect height="22" width="54.095550537109375" y="288" x="0" class="er attributeBoxOdd"/><text style="dominant-baseline: middle; font-size: 10.2px;" transform="translate(5,299)" y="0" x="0" id="text-entity-Transaction-7f4cb715-d743-519d-9786-b0e2ee68e3b7-attr-13-type" class="er entityLabel">String</text><rect height="22" width="69.08280944824219" y="288" x="54.095550537109375" class="er attributeBoxOdd"/><text style="dominant-baseline: middle; font-size: 10.2px;" transform="translate(59.095550537109375,299)" y="0" x="0" id="text-entity-Transaction-7f4cb715-d743-519d-9786-b0e2ee68e3b7-attr-13-name" class="er entityLabel">cdCarteira</text><rect height="22" width="24.015625" y="288" x="123.17835998535156" class="er attributeBoxOdd"/><text style="dominant-baseline: middle; font-size: 10.2px;" transform="translate(128.17835998535156,299)" y="0" x="0" id="text-entity-Transaction-7f4cb715-d743-519d-9786-b0e2ee68e3b7-attr-13-comment" class="er entityLabel"/><rect height="22" width="54.095550537109375" y="310" x="0" class="er attributeBoxEven"/><text style="dominant-baseline: middle; font-size: 10.2px;" transform="translate(5,321)" y="0" x="0" id="text-entity-Transaction-7f4cb715-d743-519d-9786-b0e2ee68e3b7-attr-14-type" class="er entityLabel">String</text><rect height="22" width="69.08280944824219" y="310" x="54.095550537109375" class="er attributeBoxEven"/><text style="dominant-baseline: middle; font-size: 10.2px;" transform="translate(59.095550537109375,321)" y="0" x="0" id="text-entity-Transaction-7f4cb715-d743-519d-9786-b0e2ee68e3b7-attr-14-name" class="er entityLabel">dsCarteira</text><rect height="22" width="24.015625" y="310" x="123.17835998535156" class="er attributeBoxEven"/><text style="dominant-baseline: middle; font-size: 10.2px;" transform="translate(128.17835998535156,321)" y="0" x="0" id="text-entity-Transaction-7f4cb715-d743-519d-9786-b0e2ee68e3b7-attr-14-comment" class="er entityLabel"/><rect height="22" width="54.095550537109375" y="332" x="0" class="er attributeBoxOdd"/><text style="dominant-baseline: middle; font-size: 10.2px;" transform="translate(5,343)" y="0" x="0" id="text-entity-Transaction-7f4cb715-d743-519d-9786-b0e2ee68e3b7-attr-15-type" class="er entityLabel">String</text><rect height="22" width="69.08280944824219" y="332" x="54.095550537109375" class="er attributeBoxOdd"/><text style="dominant-baseline: middle; font-size: 10.2px;" transform="translate(59.095550537109375,343)" y="0" x="0" id="text-entity-Transaction-7f4cb715-d743-519d-9786-b0e2ee68e3b7-attr-15-name" class="er entityLabel">nrProposta</text><rect height="22" width="24.015625" y="332" x="123.17835998535156" class="er attributeBoxOdd"/><text style="dominant-baseline: middle; font-size: 10.2px;" transform="translate(128.17835998535156,343)" y="0" x="0" id="text-entity-Transaction-7f4cb715-d743-519d-9786-b0e2ee68e3b7-attr-15-comment" class="er entityLabel"/><rect height="22" width="54.095550537109375" y="354" x="0" class="er attributeBoxEven"/><text style="dominant-baseline: middle; font-size: 10.2px;" transform="translate(5,365)" y="0" x="0" id="text-entity-Transaction-7f4cb715-d743-519d-9786-b0e2ee68e3b7-attr-16-type" class="er entityLabel">String</text><rect height="22" width="69.08280944824219" y="354" x="54.095550537109375" class="er attributeBoxEven"/><text style="dominant-baseline: middle; font-size: 10.2px;" transform="translate(59.095550537109375,365)" y="0" x="0" id="text-entity-Transaction-7f4cb715-d743-519d-9786-b0e2ee68e3b7-attr-16-name" class="er entityLabel">nrPresta</text><rect height="22" width="24.015625" y="354" x="123.17835998535156" class="er attributeBoxEven"/><text style="dominant-baseline: middle; font-size: 10.2px;" transform="translate(128.17835998535156,365)" y="0" x="0" id="text-entity-Transaction-7f4cb715-d743-519d-9786-b0e2ee68e3b7-attr-16-comment" class="er entityLabel"/><rect height="22" width="54.095550537109375" y="376" x="0" class="er attributeBoxOdd"/><text style="dominant-baseline: middle; font-size: 10.2px;" transform="translate(5,387)" y="0" x="0" id="text-entity-Transaction-7f4cb715-d743-519d-9786-b0e2ee68e3b7-attr-17-type" class="er entityLabel">String</text><rect height="22" width="69.08280944824219" y="376" x="54.095550537109375" class="er attributeBoxOdd"/><text style="dominant-baseline: middle; font-size: 10.2px;" transform="translate(59.095550537109375,387)" y="0" x="0" id="text-entity-Transaction-7f4cb715-d743-519d-9786-b0e2ee68e3b7-attr-17-name" class="er entityLabel">tpPresta</text><rect height="22" width="24.015625" y="376" x="123.17835998535156" class="er attributeBoxOdd"/><text style="dominant-baseline: middle; font-size: 10.2px;" transform="translate(128.17835998535156,387)" y="0" x="0" id="text-entity-Transaction-7f4cb715-d743-519d-9786-b0e2ee68e3b7-attr-17-comment" class="er entityLabel"/><rect height="22" width="54.095550537109375" y="398" x="0" class="er attributeBoxEven"/><text style="dominant-baseline: middle; font-size: 10.2px;" transform="translate(5,409)" y="0" x="0" id="text-entity-Transaction-7f4cb715-d743-519d-9786-b0e2ee68e3b7-attr-18-type" class="er entityLabel">String</text><rect height="22" width="69.08280944824219" y="398" x="54.095550537109375" class="er attributeBoxEven"/><text style="dominant-baseline: middle; font-size: 10.2px;" transform="translate(59.095550537109375,409)" y="0" x="0" id="text-entity-Transaction-7f4cb715-d743-519d-9786-b0e2ee68e3b7-attr-18-name" class="er entityLabel">nrSeqPre</text><rect height="22" width="24.015625" y="398" x="123.17835998535156" class="er attributeBoxEven"/><text style="dominant-baseline: middle; font-size: 10.2px;" transform="translate(128.17835998535156,409)" y="0" x="0" id="text-entity-Transaction-7f4cb715-d743-519d-9786-b0e2ee68e3b7-attr-18-comment" class="er entityLabel"/><rect height="22" width="54.095550537109375" y="420" x="0" class="er attributeBoxOdd"/><text style="dominant-baseline: middle; font-size: 10.2px;" transform="translate(5,431)" y="0" x="0" id="text-entity-Transaction-7f4cb715-d743-519d-9786-b0e2ee68e3b7-attr-19-type" class="er entityLabel">DateTime</text><rect height="22" width="69.08280944824219" y="420" x="54.095550537109375" class="er attributeBoxOdd"/><text style="dominant-baseline: middle; font-size: 10.2px;" transform="translate(59.095550537109375,431)" y="0" x="0" id="text-entity-Transaction-7f4cb715-d743-519d-9786-b0e2ee68e3b7-attr-19-name" class="er entityLabel">dtVctPre</text><rect height="22" width="24.015625" y="420" x="123.17835998535156" class="er attributeBoxOdd"/><text style="dominant-baseline: middle; font-size: 10.2px;" transform="translate(128.17835998535156,431)" y="0" x="0" id="text-entity-Transaction-7f4cb715-d743-519d-9786-b0e2ee68e3b7-attr-19-comment" class="er entityLabel"/><rect height="22" width="54.095550537109375" y="442" x="0" class="er attributeBoxEven"/><text style="dominant-baseline: middle; font-size: 10.2px;" transform="translate(5,453)" y="0" x="0" id="text-entity-Transaction-7f4cb715-d743-519d-9786-b0e2ee68e3b7-attr-20-type" class="er entityLabel">String</text><rect height="22" width="69.08280944824219" y="442" x="54.095550537109375" class="er attributeBoxEven"/><text style="dominant-baseline: middle; font-size: 10.2px;" transform="translate(59.095550537109375,453)" y="0" x="0" id="text-entity-Transaction-7f4cb715-d743-519d-9786-b0e2ee68e3b7-attr-20-name" class="er entityLabel">vlPresta</text><rect height="22" width="24.015625" y="442" x="123.17835998535156" class="er attributeBoxEven"/><text style="dominant-baseline: middle; font-size: 10.2px;" transform="translate(128.17835998535156,453)" y="0" x="0" id="text-entity-Transaction-7f4cb715-d743-519d-9786-b0e2ee68e3b7-attr-20-comment" class="er entityLabel"/><rect height="22" width="54.095550537109375" y="464" x="0" class="er attributeBoxOdd"/><text style="dominant-baseline: middle; font-size: 10.2px;" transform="translate(5,475)" y="0" x="0" id="text-entity-Transaction-7f4cb715-d743-519d-9786-b0e2ee68e3b7-attr-21-type" class="er entityLabel">String</text><rect height="22" width="69.08280944824219" y="464" x="54.095550537109375" class="er attributeBoxOdd"/><text style="dominant-baseline: middle; font-size: 10.2px;" transform="translate(59.095550537109375,475)" y="0" x="0" id="text-entity-Transaction-7f4cb715-d743-519d-9786-b0e2ee68e3b7-attr-21-name" class="er entityLabel">vlMora</text><rect height="22" width="24.015625" y="464" x="123.17835998535156" class="er attributeBoxOdd"/><text style="dominant-baseline: middle; font-size: 10.2px;" transform="translate(128.17835998535156,475)" y="0" x="0" id="text-entity-Transaction-7f4cb715-d743-519d-9786-b0e2ee68e3b7-attr-21-comment" class="er entityLabel"/><rect height="22" width="54.095550537109375" y="486" x="0" class="er attributeBoxEven"/><text style="dominant-baseline: middle; font-size: 10.2px;" transform="translate(5,497)" y="0" x="0" id="text-entity-Transaction-7f4cb715-d743-519d-9786-b0e2ee68e3b7-attr-22-type" class="er entityLabel">String</text><rect height="22" width="69.08280944824219" y="486" x="54.095550537109375" class="er attributeBoxEven"/><text style="dominant-baseline: middle; font-size: 10.2px;" transform="translate(59.095550537109375,497)" y="0" x="0" id="text-entity-Transaction-7f4cb715-d743-519d-9786-b0e2ee68e3b7-attr-22-name" class="er entityLabel">vlMulta</text><rect height="22" width="24.015625" y="486" x="123.17835998535156" class="er attributeBoxEven"/><text style="dominant-baseline: middle; font-size: 10.2px;" transform="translate(128.17835998535156,497)" y="0" x="0" id="text-entity-Transaction-7f4cb715-d743-519d-9786-b0e2ee68e3b7-attr-22-comment" class="er entityLabel"/><rect height="22" width="54.095550537109375" y="508" x="0" class="er attributeBoxOdd"/><text style="dominant-baseline: middle; font-size: 10.2px;" transform="translate(5,519)" y="0" x="0" id="text-entity-Transaction-7f4cb715-d743-519d-9786-b0e2ee68e3b7-attr-23-type" class="er entityLabel">String</text><rect height="22" width="69.08280944824219" y="508" x="54.095550537109375" class="er attributeBoxOdd"/><text style="dominant-baseline: middle; font-size: 10.2px;" transform="translate(59.095550537109375,519)" y="0" x="0" id="text-entity-Transaction-7f4cb715-d743-519d-9786-b0e2ee68e3b7-attr-23-name" class="er entityLabel">vlOutAcr</text><rect height="22" width="24.015625" y="508" x="123.17835998535156" class="er attributeBoxOdd"/><text style="dominant-baseline: middle; font-size: 10.2px;" transform="translate(128.17835998535156,519)" y="0" x="0" id="text-entity-Transaction-7f4cb715-d743-519d-9786-b0e2ee68e3b7-attr-23-comment" class="er entityLabel"/><rect height="22" width="54.095550537109375" y="530" x="0" class="er attributeBoxEven"/><text style="dominant-baseline: middle; font-size: 10.2px;" transform="translate(5,541)" y="0" x="0" id="text-entity-Transaction-7f4cb715-d743-519d-9786-b0e2ee68e3b7-attr-24-type" class="er entityLabel">String</text><rect height="22" width="69.08280944824219" y="530" x="54.095550537109375" class="er attributeBoxEven"/><text style="dominant-baseline: middle; font-size: 10.2px;" transform="translate(59.095550537109375,541)" y="0" x="0" id="text-entity-Transaction-7f4cb715-d743-519d-9786-b0e2ee68e3b7-attr-24-name" class="er entityLabel">vlIof</text><rect height="22" width="24.015625" y="530" x="123.17835998535156" class="er attributeBoxEven"/><text style="dominant-baseline: middle; font-size: 10.2px;" transform="translate(128.17835998535156,541)" y="0" x="0" id="text-entity-Transaction-7f4cb715-d743-519d-9786-b0e2ee68e3b7-attr-24-comment" class="er entityLabel"/><rect height="22" width="54.095550537109375" y="552" x="0" class="er attributeBoxOdd"/><text style="dominant-baseline: middle; font-size: 10.2px;" transform="translate(5,563)" y="0" x="0" id="text-entity-Transaction-7f4cb715-d743-519d-9786-b0e2ee68e3b7-attr-25-type" class="er entityLabel">String</text><rect height="22" width="69.08280944824219" y="552" x="54.095550537109375" class="er attributeBoxOdd"/><text style="dominant-baseline: middle; font-size: 10.2px;" transform="translate(59.095550537109375,563)" y="0" x="0" id="text-entity-Transaction-7f4cb715-d743-519d-9786-b0e2ee68e3b7-attr-25-name" class="er entityLabel">vlDescon</text><rect height="22" width="24.015625" y="552" x="123.17835998535156" class="er attributeBoxOdd"/><text style="dominant-baseline: middle; font-size: 10.2px;" transform="translate(128.17835998535156,563)" y="0" x="0" id="text-entity-Transaction-7f4cb715-d743-519d-9786-b0e2ee68e3b7-attr-25-comment" class="er entityLabel"/><rect height="22" width="54.095550537109375" y="574" x="0" class="er attributeBoxEven"/><text style="dominant-baseline: middle; font-size: 10.2px;" transform="translate(5,585)" y="0" x="0" id="text-entity-Transaction-7f4cb715-d743-519d-9786-b0e2ee68e3b7-attr-26-type" class="er entityLabel">String</text><rect height="22" width="69.08280944824219" y="574" x="54.095550537109375" class="er attributeBoxEven"/><text style="dominant-baseline: middle; font-size: 10.2px;" transform="translate(59.095550537109375,585)" y="0" x="0" id="text-entity-Transaction-7f4cb715-d743-519d-9786-b0e2ee68e3b7-attr-26-name" class="er entityLabel">vlAtual</text><rect height="22" width="24.015625" y="574" x="123.17835998535156" class="er attributeBoxEven"/><text style="dominant-baseline: middle; font-size: 10.2px;" transform="translate(128.17835998535156,585)" y="0" x="0" id="text-entity-Transaction-7f4cb715-d743-519d-9786-b0e2ee68e3b7-attr-26-comment" class="er entityLabel"/><rect height="22" width="54.095550537109375" y="596" x="0" class="er attributeBoxOdd"/><text style="dominant-baseline: middle; font-size: 10.2px;" transform="translate(5,607)" y="0" x="0" id="text-entity-Transaction-7f4cb715-d743-519d-9786-b0e2ee68e3b7-attr-27-type" class="er entityLabel">String</text><rect height="22" width="69.08280944824219" y="596" x="54.095550537109375" class="er attributeBoxOdd"/><text style="dominant-baseline: middle; font-size: 10.2px;" transform="translate(59.095550537109375,607)" y="0" x="0" id="text-entity-Transaction-7f4cb715-d743-519d-9786-b0e2ee68e3b7-attr-27-name" class="er entityLabel">idSituac</text><rect height="22" width="24.015625" y="596" x="123.17835998535156" class="er attributeBoxOdd"/><text style="dominant-baseline: middle; font-size: 10.2px;" transform="translate(128.17835998535156,607)" y="0" x="0" id="text-entity-Transaction-7f4cb715-d743-519d-9786-b0e2ee68e3b7-attr-27-comment" class="er entityLabel"/><rect height="22" width="54.095550537109375" y="618" x="0" class="er attributeBoxEven"/><text style="dominant-baseline: middle; font-size: 10.2px;" transform="translate(5,629)" y="0" x="0" id="text-entity-Transaction-7f4cb715-d743-519d-9786-b0e2ee68e3b7-attr-28-type" class="er entityLabel">String</text><rect height="22" width="69.08280944824219" y="618" x="54.095550537109375" class="er attributeBoxEven"/><text style="dominant-baseline: middle; font-size: 10.2px;" transform="translate(59.095550537109375,629)" y="0" x="0" id="text-entity-Transaction-7f4cb715-d743-519d-9786-b0e2ee68e3b7-attr-28-name" class="er entityLabel">idSitVen</text><rect height="22" width="24.015625" y="618" x="123.17835998535156" class="er attributeBoxEven"/><text style="dominant-baseline: middle; font-size: 10.2px;" transform="translate(128.17835998535156,629)" y="0" x="0" id="text-entity-Transaction-7f4cb715-d743-519d-9786-b0e2ee68e3b7-attr-28-comment" class="er entityLabel"/></g></svg>