<?xml version="1.0" standalone="no"?>
<!DOCTYPE svg PUBLIC "-//W3C//DTD SVG 20010904//EN"
 "http://www.w3.org/TR/2001/REC-SVG-20010904/DTD/svg10.dtd">
<svg version="1.0" xmlns="http://www.w3.org/2000/svg"
 width="300.000000pt" height="300.000000pt" viewBox="0 0 300.000000 300.000000"
 preserveAspectRatio="xMidYMid meet">
<metadata>
Created by potrace 1.10, written by Peter Selinger 2001-2011
</metadata>
<g transform="translate(0.000000,300.000000) scale(0.100000,-0.100000)"
fill="#000000" stroke="none">
<path d="M1401 2259 c-158 -31 -305 -112 -416 -230 -92 -98 -155 -212 -182
-331 -24 -107 -22 -283 4 -376 12 -41 17 -70 13 -65 -10 11 -37 96 -49 158
l-10 50 4 -51 c6 -77 50 -199 102 -283 154 -248 406 -390 693 -390 107 -1 202
22 305 73 210 104 367 297 411 506 23 109 15 339 -16 435 -53 167 -152 306
-285 399 -24 17 -12 2 32 -38 39 -37 93 -94 119 -129 49 -64 108 -181 118
-232 6 -26 5 -26 -8 6 -94 240 -254 399 -478 473 -102 34 -257 45 -357 25z
m296 -29 c91 -22 213 -73 213 -89 0 -6 5 -11 10 -11 19 0 114 -77 151 -122
127 -152 181 -301 180 -497 0 -126 -10 -172 -60 -293 -124 -296 -447 -475
-764 -424 -121 20 -187 45 -279 105 -95 63 -205 170 -191 185 4 3 2 6 -4 6
-10 0 -83 110 -83 125 0 4 -6 21 -14 38 -50 108 -67 312 -37 437 30 123 104
252 198 347 178 178 437 252 680 193z m563 -899 c-63 -255 -244 -447 -513
-543 -54 -20 -82 -23 -207 -22 -124 0 -154 3 -205 22 -33 12 -49 19 -35 16 14
-2 57 -12 95 -20 155 -35 360 -1 505 83 91 53 235 200 282 288 41 79 87 226
90 289 1 39 1 39 5 7 3 -19 -5 -73 -17 -120z"/>
<path d="M1488 2225 c-2 -1 -23 -5 -48 -8 -59 -7 -97 -15 -140 -29 -19 -7 -38
-11 -42 -10 -5 1 -8 -2 -8 -8 0 -5 -3 -9 -7 -8 -12 3 -76 -33 -94 -53 -9 -10
-19 -16 -23 -12 -3 3 -6 1 -6 -5 0 -7 -5 -11 -12 -9 -6 1 -17 -8 -23 -21 -7
-13 -16 -23 -20 -22 -10 3 -64 -58 -57 -64 3 -3 -2 -6 -11 -6 -9 0 -19 -5 -23
-12 -4 -7 -3 -8 4 -4 7 4 12 3 12 -3 0 -5 -9 -13 -20 -16 -11 -4 -18 -11 -15
-16 4 -5 1 -9 -4 -9 -6 0 -11 -7 -11 -15 0 -8 -9 -24 -21 -36 -11 -11 -22 -35
-25 -52 -2 -17 -7 -33 -12 -36 -5 -3 -8 -14 -6 -23 1 -10 -2 -18 -7 -18 -6 0
-7 -4 -4 -10 3 -5 2 -10 -2 -10 -5 0 -9 -8 -10 -17 -1 -10 -5 -34 -8 -53 -3
-19 -6 -50 -5 -68 1 -25 -3 -32 -12 -26 -10 6 -10 5 -1 -7 6 -8 10 -33 10 -57
-1 -23 2 -42 7 -42 5 0 3 -7 -4 -15 -10 -12 -9 -15 5 -15 14 0 15 -3 5 -15 -7
-8 -8 -15 -3 -15 5 0 10 -7 10 -15 0 -8 -4 -15 -9 -15 -5 0 -2 -7 6 -16 9 -8
16 -21 16 -29 0 -7 6 -16 13 -18 6 -3 3 -6 -8 -7 -17 -1 -17 -3 5 -11 20 -8
22 -12 10 -19 -13 -8 -12 -10 3 -10 20 0 23 -16 5 -23 -8 -3 -5 -6 5 -6 10 -1
15 -5 12 -11 -3 -5 -1 -10 5 -10 6 0 8 -5 5 -11 -4 -5 3 -18 15 -29 12 -10 20
-21 18 -24 -2 -3 5 -14 14 -26 10 -11 14 -20 10 -20 -4 0 7 -9 23 -20 17 -11
26 -20 20 -20 -5 0 2 -11 18 -24 15 -13 27 -28 27 -34 0 -6 7 -9 15 -6 11 5
13 2 8 -12 -5 -13 -3 -16 10 -11 12 4 17 1 17 -9 0 -11 5 -14 16 -10 12 5 15
2 10 -10 -4 -11 -2 -15 7 -11 8 3 20 -3 27 -13 8 -11 17 -17 22 -14 4 3 8 0 8
-6 0 -7 6 -10 14 -7 8 3 20 -1 26 -8 7 -8 16 -12 21 -9 5 3 9 0 9 -7 0 -7 3
-9 7 -6 3 4 11 3 17 -2 6 -6 25 -12 41 -15 17 -2 30 -5 30 -6 0 -18 249 -15
328 4 70 16 190 75 256 124 43 32 105 92 95 92 -4 0 5 11 19 24 14 13 23 27
20 30 -4 3 -1 6 5 6 7 0 12 7 12 15 0 8 5 15 11 15 6 0 9 7 5 15 -3 9 0 15 9
15 9 0 12 6 8 17 -5 12 -3 14 7 8 10 -6 12 -4 7 8 -3 10 -2 17 3 17 6 0 10 7
10 15 0 8 4 15 8 15 4 0 8 8 9 18 3 44 8 62 16 62 5 0 7 6 4 14 -3 8 -1 17 6
20 9 3 8 8 -3 15 -13 9 -12 11 4 11 15 0 16 3 6 15 -10 12 -10 15 0 15 7 0 10
7 6 15 -3 8 0 15 7 15 8 0 7 4 -3 10 -12 8 -13 11 -1 19 11 7 11 9 0 14 -12 5
-12 7 0 15 11 8 11 10 0 15 -12 5 -12 7 0 15 10 7 10 11 1 17 -9 6 -9 10 1 16
12 7 12 9 0 9 -7 0 -11 6 -7 15 3 8 1 15 -4 15 -5 0 -7 12 -6 28 2 15 -2 30
-8 35 -8 5 -7 10 4 17 12 8 12 10 -5 10 -15 0 -17 2 -6 9 10 6 10 10 1 16 -6
4 -9 14 -6 22 3 8 2 12 -3 9 -5 -3 -11 1 -15 9 -3 8 -1 15 5 15 6 0 3 7 -6 16
-9 9 -14 23 -11 30 3 8 -1 14 -10 14 -8 0 -13 4 -9 9 3 5 1 12 -5 16 -6 4 -8
11 -5 16 4 5 -1 9 -10 9 -9 0 -13 5 -10 10 3 6 -1 13 -9 16 -9 3 -14 10 -11
14 3 4 -3 11 -12 14 -15 6 -15 8 -3 16 13 8 12 10 -2 10 -21 0 -24 16 -5 24 6
4 2 4 -10 2 -13 -2 -23 0 -23 6 0 14 -26 38 -34 31 -3 -4 -6 2 -6 12 0 10 -3
15 -6 12 -4 -4 -15 3 -25 14 -10 12 -22 18 -27 15 -6 -3 -13 5 -16 19 -4 14
-11 25 -16 25 -17 0 17 -46 91 -120 216 -217 261 -566 107 -828 -18 -32 -69
-93 -113 -138 -128 -129 -281 -194 -459 -194 -275 0 -514 159 -624 416 -40 95
-52 157 -52 272 0 223 97 415 274 544 173 126 404 162 605 93 88 -30 81 -29
81 -9 0 8 -4 12 -10 9 -5 -3 -10 -2 -10 3 0 5 -9 12 -20 15 -12 3 -18 1 -14
-5 4 -6 -5 -2 -20 7 -14 10 -26 14 -26 10 0 -4 -7 -2 -15 5 -8 7 -24 10 -35 7
-11 -3 -20 -2 -20 2 0 4 -6 8 -12 9 -68 6 -147 10 -150 7z"/>
<path d="M1372 2165 c-86 -20 -216 -90 -282 -151 -167 -155 -249 -399 -206
-612 45 -221 168 -384 361 -477 84 -40 181 -71 145 -46 -12 9 -12 11 -1 11 8
0 19 -7 25 -15 14 -19 173 -35 162 -16 -6 8 3 10 33 5 29 -5 41 -3 41 5 0 7 5
9 10 6 6 -4 35 1 65 10 38 11 55 21 56 33 0 11 2 12 6 4 4 -10 9 -9 20 5 8 10
12 12 8 5 -5 -10 -1 -10 19 -1 14 7 23 15 21 19 -3 4 3 7 13 6 9 0 16 4 15 11
-2 7 3 10 10 7 7 -2 22 5 33 17 12 14 13 19 4 14 -9 -5 -12 -4 -7 1 5 5 16 9
25 9 9 0 16 6 14 13 -1 8 2 11 7 8 16 -10 142 160 140 188 0 5 3 12 8 15 10 8
35 71 36 94 1 9 5 17 9 17 4 0 7 8 6 18 0 9 3 33 6 52 9 56 7 210 -3 210 -5 0
-9 18 -14 72 -1 9 -6 14 -11 11 -5 -4 -7 1 -3 10 3 10 2 17 -3 17 -6 0 -9 3
-8 8 1 4 -3 17 -10 28 -6 12 -8 24 -5 28 3 3 1 6 -5 6 -6 0 -14 9 -17 20 -3
11 -10 20 -15 20 -5 0 5 -26 20 -58 32 -62 57 -158 63 -239 4 -58 -11 -143
-44 -247 -60 -187 -241 -352 -439 -402 -131 -33 -360 -2 -457 61 -13 9 -27 14
-32 11 -4 -3 -17 1 -27 9 -18 15 -18 15 1 9 20 -6 20 -5 1 10 -14 11 -22 13
-27 5 -5 -8 -8 -8 -13 0 -4 6 -2 11 4 11 6 0 9 4 5 10 -3 5 -13 7 -23 4 -14
-5 -15 -4 -2 5 14 10 13 12 -20 15 -8 0 -14 7 -13 13 2 7 -1 12 -6 10 -12 -3
-79 72 -87 97 -4 12 -10 23 -14 26 -11 8 -63 150 -69 189 -3 20 -5 88 -5 151
1 95 5 127 26 185 39 111 71 166 146 246 119 127 285 198 466 197 90 0 224
-29 238 -52 4 -6 8 -8 8 -3 0 4 26 -6 58 -22 59 -30 171 -138 208 -200 10 -17
22 -31 27 -31 8 0 -9 36 -27 57 -29 33 -34 41 -29 47 4 3 2 6 -3 6 -6 0 -36
25 -67 55 -63 60 -168 116 -262 140 -72 18 -238 19 -313 0z"/>
<path d="M1827 2148 c-2 -7 15 -25 39 -40 24 -15 44 -24 44 -20 -1 14 -27 42
-33 35 -4 -3 -7 1 -7 11 0 9 -4 14 -10 11 -5 -3 -10 -1 -10 4 0 15 -17 14 -23
-1z"/>
<path d="M1360 2110 c-127 -41 -199 -85 -279 -169 -55 -58 -110 -150 -132
-220 -27 -84 -36 -239 -19 -323 15 -78 65 -187 117 -255 43 -58 159 -156 173
-148 10 6 2 35 -8 33 -16 -3 -41 15 -35 26 4 6 -2 4 -13 -4 -10 -8 -16 -11
-12 -6 12 14 -11 46 -32 46 -10 0 -21 4 -24 9 -4 5 4 7 16 5 21 -4 21 -4 3 5
-20 9 -70 61 -59 61 3 0 -1 7 -8 15 -32 35 -38 45 -38 60 0 10 -5 13 -12 9 -7
-4 -8 -3 -4 4 4 6 2 20 -3 30 -12 23 -21 64 -26 120 -1 24 -5 46 -8 49 -14 13
8 213 29 263 1 3 5 15 9 28 4 12 11 22 16 22 5 0 8 3 7 8 -6 19 45 86 57 74 4
-4 6 -2 5 3 -6 29 5 44 81 109 19 16 41 35 50 43 21 18 146 63 153 55 3 -3 6
-1 6 5 0 6 10 9 23 8 12 -1 32 4 45 12 13 8 22 9 22 3 0 -5 3 -9 8 -9 4 1 16
1 27 0 16 -1 17 -3 5 -10 -8 -6 -19 -7 -25 -3 -5 3 -4 -2 4 -11 15 -18 26 -23
16 -7 -3 6 -2 10 4 10 5 0 11 -5 13 -12 3 -8 11 -7 28 5 19 13 20 17 8 17 -9
0 -19 4 -22 8 -3 5 8 7 23 4 16 -2 31 1 35 6 4 7 17 7 38 2 17 -5 35 -7 39 -4
5 3 14 2 20 -2 8 -4 8 -9 1 -13 -6 -4 7 -6 29 -6 22 0 43 -5 47 -10 4 -6 16
-12 27 -13 10 -2 29 -11 41 -20 12 -10 32 -24 44 -32 13 -8 41 -32 64 -52 23
-21 45 -38 49 -38 5 0 5 -4 2 -10 -3 -5 -2 -10 3 -10 14 0 63 -81 55 -92 -3
-7 -1 -8 5 -4 8 5 12 0 12 -13 0 -12 4 -21 9 -21 5 0 8 -8 7 -17 -2 -10 3 -22
10 -28 19 -14 34 -101 21 -114 -6 -6 -7 -11 -3 -11 5 0 3 -7 -4 -15 -11 -13
-10 -14 6 -9 10 4 16 4 12 -1 -4 -4 -3 -16 2 -26 7 -12 6 -20 -1 -24 -6 -4 -8
-18 -5 -31 7 -25 -8 -34 -18 -11 -3 6 -3 1 0 -12 5 -20 3 -23 -11 -17 -15 5
-16 4 -5 -9 11 -14 14 -13 26 2 12 17 13 17 10 1 -1 -9 -11 -27 -22 -39 -10
-12 -13 -19 -6 -15 6 4 12 3 12 -2 0 -6 -8 -13 -17 -16 -13 -5 -14 -9 -5 -15
9 -6 7 -12 -8 -26 -11 -10 -17 -22 -14 -27 3 -5 0 -15 -6 -23 -6 -8 -8 -20 -4
-26 4 -8 3 -9 -4 -5 -11 7 -17 -6 -13 -28 1 -5 -5 -6 -14 -2 -10 3 -14 2 -10
-5 4 -5 -4 -20 -17 -33 -12 -12 -30 -31 -39 -42 -28 -33 -114 -104 -157 -130
-43 -26 -202 -66 -262 -67 -19 0 -53 3 -75 7 -22 4 -53 9 -70 12 -16 3 -35 10
-42 16 -7 6 -13 7 -13 4 0 -4 -10 -1 -22 6 -13 7 -27 13 -33 13 -5 1 -9 7 -7
15 2 8 0 12 -4 8 -4 -4 -12 -4 -18 2 -8 6 -12 3 -13 -11 -1 -15 10 -25 43 -40
73 -31 198 -59 262 -59 78 0 221 42 293 85 98 60 202 171 235 252 9 21 22 52
29 68 21 50 33 106 40 186 6 68 5 78 -11 88 -11 6 -13 11 -6 11 18 0 15 39
-12 116 -29 86 -49 125 -93 187 -19 26 -32 47 -28 47 4 0 2 7 -5 15 -7 9 -15
13 -18 11 -2 -3 -22 10 -44 28 -51 44 -140 91 -219 116 -85 26 -258 27 -339 0z"/>
<path d="M1465 2017 c4 -19 3 -20 -8 -6 -9 12 -15 13 -23 5 -8 -8 -7 -14 4
-22 12 -9 12 -13 2 -19 -8 -5 -11 -4 -7 2 4 6 -3 9 -18 8 -32 -4 -47 -14 -39
-27 4 -6 -1 -8 -11 -6 -23 4 -32 28 -12 28 8 0 25 9 38 20 23 18 22 18 -18 -1
-47 -23 -51 -30 -28 -49 10 -9 22 -9 42 -2 22 8 24 11 8 11 -16 1 -17 3 -6 10
10 6 23 5 35 -1 23 -12 24 -12 45 5 12 9 13 9 7 0 -4 -9 -1 -13 10 -13 12 0
15 6 10 23 -3 12 -6 27 -6 33 0 7 -6 14 -14 17 -11 4 -14 0 -11 -16z"/>
<path d="M1555 2018 c-2 -7 -5 -25 -7 -39 -5 -25 -4 -26 44 -21 88 8 193 -63
203 -138 2 -16 6 -38 10 -49 4 -13 -1 -27 -14 -40 -37 -37 -66 -22 -102 54
-24 50 -57 74 -119 88 l-25 6 3 -139 3 -140 27 -6 c118 -26 185 -72 226 -157
52 -106 44 -205 -24 -276 -54 -56 -113 -84 -182 -85 -37 0 -54 -4 -48 -10 6
-6 11 -24 11 -41 l1 -30 7 29 c3 16 13 30 21 31 72 11 93 17 131 37 74 39 116
95 124 170 3 24 7 57 9 73 2 17 -8 54 -22 85 -13 30 -25 60 -25 67 0 6 -6 9
-14 6 -7 -3 -13 -1 -13 3 0 28 -108 114 -143 114 -9 0 -25 13 -36 29 -24 33
-27 46 -8 35 9 -6 9 -4 -1 8 -8 10 -9 19 -3 22 6 4 6 16 0 35 -11 31 3 81 22
81 13 0 38 -29 76 -87 25 -39 41 -49 68 -43 6 1 17 3 25 4 19 4 49 45 54 76 2
14 -2 35 -10 47 -8 12 -15 30 -17 40 -1 10 -6 18 -10 18 -4 0 -18 17 -32 38
-15 21 -30 35 -35 32 -4 -3 -10 0 -12 7 -3 7 -15 13 -28 13 -13 0 -25 6 -27
13 -3 8 2 10 14 6 14 -5 15 -4 3 4 -9 7 -18 8 -26 1 -8 -7 -14 -7 -18 0 -4 6
-13 8 -22 4 -8 -3 -14 -2 -13 3 4 23 -3 34 -21 34 -11 0 -22 -6 -25 -12z"/>
<path d="M1301 1947 c10 -19 10 -20 -2 -11 -8 6 -22 11 -31 11 -19 0 -15 -10
5 -13 7 -1 18 -3 26 -5 20 -5 26 27 6 35 -13 5 -14 2 -4 -17z"/>
<path d="M1266 1904 c-4 -9 -13 -14 -21 -10 -8 3 -14 2 -13 -2 1 -4 -4 -17
-12 -29 -10 -16 -18 -19 -26 -12 -8 7 -14 6 -19 -1 -4 -6 -3 -10 2 -9 22 4 25
-2 7 -17 -18 -15 -18 -15 2 -5 24 12 35 6 27 -15 -3 -9 -13 -12 -27 -9 -15 5
-17 3 -8 -3 11 -7 8 -14 -14 -31 -14 -11 -23 -21 -18 -21 4 0 18 10 31 22 19
18 25 19 36 8 10 -10 9 -11 -2 -5 -9 5 -12 3 -9 -6 3 -8 -6 -27 -21 -44 l-26
-30 28 24 c15 14 27 20 27 15 0 -14 -13 -29 -35 -43 -19 -11 -18 -12 5 -6 24
6 25 6 5 -10 -11 -9 -27 -14 -35 -12 -10 2 -16 -3 -16 -13 0 -16 4 -15 36 5
19 13 34 28 33 34 -2 6 4 8 13 4 13 -5 13 -8 -3 -25 -12 -13 -13 -18 -4 -16 7
2 16 -3 19 -11 2 -8 0 -11 -6 -7 -6 3 -13 2 -17 -3 -3 -6 3 -8 14 -6 15 3 26
-7 43 -33 32 -54 67 -83 121 -104 26 -10 47 -15 47 -12 0 3 7 -2 17 -11 9 -10
16 -34 17 -61 1 -24 4 -44 9 -44 4 0 7 -5 7 -11 0 -5 -6 -7 -12 -3 -9 6 -9 3
1 -9 7 -9 10 -24 7 -33 -5 -14 -9 -14 -23 -3 -15 13 -15 12 -2 -8 9 -16 16
-19 21 -10 5 7 8 1 8 -15 0 -32 -39 -62 -41 -31 0 11 -2 13 -6 5 -4 -10 -9 -9
-20 5 -8 10 -12 12 -8 6 3 -7 1 -13 -5 -13 -6 0 -24 28 -40 62 -23 49 -27 65
-18 82 9 17 8 19 -3 9 -15 -15 -33 -17 -25 -4 4 5 -20 8 -54 6 -43 -2 -58 0
-53 8 4 7 -1 6 -10 -2 -17 -13 -14 -36 4 -26 5 4 9 2 9 -3 0 -17 -13 -21 -34
-11 -20 10 -20 9 -2 -5 15 -12 17 -18 7 -30 -9 -10 -9 -16 -1 -21 6 -4 9 -13
6 -21 -3 -7 2 -17 10 -22 14 -8 12 -12 -11 -30 -15 -12 -24 -22 -20 -22 5 0
17 8 28 18 19 16 20 16 15 -5 -3 -12 -2 -21 2 -20 4 1 9 -2 11 -8 2 -5 21 -25
44 -44 22 -18 43 -38 46 -43 3 -5 9 -9 13 -9 7 1 35 -8 61 -20 11 -4 33 -10
50 -11 21 -2 31 -9 35 -26 8 -35 25 -27 28 13 3 34 2 36 -30 36 -74 0 -88 1
-88 9 0 4 -13 13 -29 20 -40 16 -113 92 -128 132 -6 18 -12 49 -12 68 -1 29 4
39 27 52 40 23 69 9 77 -39 11 -70 16 -84 24 -79 5 3 16 -3 26 -14 20 -22 80
-44 95 -35 5 3 10 1 10 -4 0 -6 7 -11 15 -11 13 0 15 23 15 145 0 80 3 145 8
145 29 -1 37 -23 43 -122 7 -123 2 -159 -23 -165 -10 -3 -18 -12 -18 -19 0
-17 -13 -17 -63 -3 -47 13 -62 4 -21 -12 46 -17 64 -19 84 -7 14 9 25 9 43 1
47 -22 97 -3 157 60 19 19 27 107 10 107 -6 0 -10 -12 -10 -27 0 -59 -51 -108
-132 -128 -49 -12 -31 14 26 39 38 17 60 34 71 56 21 41 21 111 0 143 -19 30
-98 69 -184 91 -189 48 -256 123 -263 295 -2 68 0 85 12 88 12 4 12 3 1 -5
-10 -7 -11 -14 -2 -28 9 -17 10 -17 11 -2 0 9 11 30 25 46 13 16 22 32 18 36
-11 10 -21 7 -27 -10z m375 -524 c24 -23 30 -37 27 -62 -2 -22 -8 -32 -17 -30
-12 3 -12 0 -2 -12 9 -11 9 -16 0 -22 -8 -5 -9 -3 -4 6 5 9 4 11 -3 6 -7 -4
-12 -14 -12 -23 0 -12 -3 -13 -15 -3 -8 6 -19 9 -25 5 -6 -4 -10 20 -10 73 0
104 10 114 61 62z"/>
<path d="M1457 1865 c-52 -18 -85 -51 -93 -92 -9 -46 1 -78 37 -116 17 -17 28
-26 24 -19 -8 16 0 15 36 -4 17 -8 33 -14 35 -11 3 2 3 61 2 130 l-3 125 -38
-13z m4 -82 c1 -10 2 -35 4 -55 5 -56 -17 -66 -42 -19 -18 34 -19 41 -6 64 15
30 42 36 44 10z"/>
<path d="M1740 1173 c0 -5 -18 -19 -40 -32 -22 -14 -38 -26 -36 -29 7 -6 86
47 86 58 0 12 -10 14 -10 3z"/>
</g>
</svg>
