<?xml version="1.0" standalone="no"?>
<!DOCTYPE svg PUBLIC "-//W3C//DTD SVG 20010904//EN"
 "http://www.w3.org/TR/2001/REC-SVG-20010904/DTD/svg10.dtd">
<svg version="1.0" xmlns="http://www.w3.org/2000/svg"
 width="300.000000pt" height="300.000000pt" viewBox="0 0 300.000000 300.000000"
 preserveAspectRatio="xMidYMid meet">
<metadata>
Created by potrace 1.10, written by Peter Selinger 2001-2011
</metadata>
<g transform="translate(0.000000,300.000000) scale(0.100000,-0.100000)"
fill="#000000" stroke="none">
<path d="M1480 2770 c-82 -10 -130 -68 -130 -158 l0 -48 -69 -12 c-163 -28
-341 -151 -426 -295 -59 -98 -78 -181 -72 -305 6 -132 31 -207 95 -294 93
-123 209 -196 374 -232 l98 -21 0 -322 c0 -178 -3 -323 -7 -323 -22 1 -125 30
-174 49 -71 27 -133 68 -185 123 -96 101 -111 258 -25 258 33 0 51 -17 51 -47
0 -23 -33 -48 -50 -38 -13 8 -24 -39 -16 -70 20 -77 129 -99 191 -37 92 91 85
236 -16 326 -139 125 -347 58 -404 -132 -41 -133 18 -297 154 -424 110 -104
269 -180 409 -196 l67 -7 6 -46 c14 -96 71 -137 180 -131 14 1 43 17 64 35 34
30 40 41 45 88 l5 54 65 6 c170 16 367 115 464 233 97 119 136 223 136 365 0
214 -96 371 -283 460 -90 44 -166 61 -296 66 l-86 4 -3 337 -2 337 60 -6 c91
-10 209 -60 291 -124 57 -45 77 -68 100 -117 47 -98 35 -176 -25 -176 -51 0
-60 55 -13 78 62 30 11 132 -66 132 -66 0 -137 -72 -151 -153 -22 -123 98
-257 229 -257 86 0 179 60 221 143 24 47 26 58 22 151 -4 87 -8 109 -34 158
-35 68 -101 150 -164 201 -98 80 -263 147 -402 161 l-68 8 0 58 c0 52 -4 64
-30 94 -37 42 -71 54 -130 46z m75 -85 c22 -21 25 -33 25 -97 l0 -74 98 -11
c109 -13 231 -51 310 -95 77 -44 192 -161 227 -233 26 -52 30 -71 30 -146 0
-77 -3 -90 -28 -128 -39 -59 -80 -81 -148 -81 -71 0 -115 28 -147 92 -30 60
-23 118 18 160 33 32 39 33 66 14 19 -14 18 -15 -7 -43 -35 -36 -42 -64 -28
-97 38 -82 164 -74 205 13 21 44 14 124 -16 187 -73 151 -287 276 -496 291
l-84 6 0 -400 0 -400 103 -7 c223 -15 325 -49 427 -143 102 -94 149 -220 136
-362 -25 -279 -253 -471 -598 -506 l-68 -7 0 -54 c0 -69 -15 -101 -55 -114
-69 -23 -110 19 -107 111 l2 55 -92 13 c-240 32 -442 157 -524 326 -25 52 -29
72 -29 145 0 76 3 90 28 132 65 107 219 120 293 23 22 -30 29 -50 32 -99 4
-56 1 -65 -23 -94 -18 -22 -36 -32 -55 -32 -42 0 -46 27 -9 61 28 26 31 34 26
71 -8 62 -44 93 -108 93 -47 0 -54 -3 -85 -39 -42 -49 -52 -104 -30 -179 18
-61 87 -160 139 -200 99 -75 232 -126 374 -141 l61 -7 -1 388 -2 388 -68 8
c-80 8 -191 44 -262 83 -109 61 -206 190 -234 314 -40 172 23 350 169 483 88
80 189 125 330 148 l70 12 0 78 c0 66 3 82 20 99 29 29 84 27 115 -5z"/>
<path d="M1490 2591 c0 -27 -3 -56 -6 -65 -4 -11 0 -16 12 -16 17 0 19 8 17
57 -2 75 -1 73 -13 73 -5 0 -10 -22 -10 -49z"/>
<path d="M1490 2068 c0 -210 -3 -393 -6 -405 -5 -18 -2 -23 12 -23 18 0 19 15
17 402 -2 261 -6 404 -13 406 -7 3 -10 -125 -10 -380z"/>
<path d="M1291 2419 c-230 -60 -385 -238 -385 -444 0 -161 90 -302 239 -377
58 -29 180 -58 239 -57 41 1 41 1 13 13 -33 15 -26 26 11 20 43 -8 19 5 -35
19 -105 28 -181 95 -162 145 12 32 45 28 64 -9 15 -29 99 -79 133 -79 9 0 12
86 12 395 l0 395 -27 -1 c-16 0 -61 -9 -102 -20z m61 -360 c2 -171 0 -313 -5
-316 -4 -2 -12 9 -18 27 -11 30 -52 60 -84 60 -58 0 -113 -73 -100 -132 6 -27
5 -29 -13 -19 -32 17 -105 104 -130 155 -15 28 -26 72 -29 115 -10 129 47 242
172 337 27 20 172 82 197 84 4 0 9 -140 10 -311z m-102 -461 c0 -8 -97 26
-109 37 -3 4 5 16 18 27 l25 19 33 -38 c18 -21 32 -41 33 -45z"/>
<path d="M1755 1549 c44 -11 83 -23 87 -27 3 -4 -2 -18 -13 -31 l-20 -24 -22
22 c-13 11 -32 21 -43 21 -15 0 -13 -5 14 -26 36 -29 41 -58 13 -73 -14 -8
-25 -6 -42 8 -30 23 -84 41 -120 41 l-29 0 0 -385 0 -386 63 6 c349 36 580
269 537 541 -13 83 -39 134 -101 199 -79 83 -166 118 -324 129 l-80 5 80 -20z
m180 -94 c90 -43 135 -99 168 -211 25 -86 8 -189 -45 -267 -33 -50 -125 -126
-184 -153 -60 -28 -203 -67 -221 -59 -16 6 -19 581 -3 605 5 8 10 10 10 5 0
-11 68 -35 100 -35 32 0 58 17 75 50 18 35 19 71 3 89 -18 19 32 7 97 -24z
m-268 -38 c6 2 14 -1 18 -6 3 -6 -2 -11 -12 -11 -10 0 -29 -7 -41 -16 -21 -14
-22 -14 -22 9 0 30 8 38 29 28 9 -5 21 -6 28 -4z"/>
<path d="M1940 1400 c36 -17 77 -43 92 -57 16 -15 28 -22 28 -16 0 16 -57 61
-98 79 -70 29 -86 24 -22 -6z"/>
<path d="M1489 1466 c-2 -2 -3 -178 -1 -390 2 -297 5 -386 15 -386 9 0 11 87
10 387 -2 343 -6 406 -24 389z"/>
<path d="M1490 580 c0 -27 5 -50 10 -50 6 0 10 23 10 50 0 28 -4 50 -10 50 -5
0 -10 -22 -10 -50z"/>
</g>
</svg>
